<?xml version="1.0" standalone="no"?>
<!DOCTYPE svg PUBLIC "-//W3C//DTD SVG 20010904//EN"
 "http://www.w3.org/TR/2001/REC-SVG-20010904/DTD/svg10.dtd">
<svg version="1.0" xmlns="http://www.w3.org/2000/svg"
 width="322.000000pt" height="322.000000pt" viewBox="0 0 322.000000 322.000000"
 preserveAspectRatio="xMidYMid meet">
<metadata>
Created by potrace 1.14, written by Peter Selinger 2001-2017
</metadata>
<g transform="translate(0.000000,322.000000) scale(0.100000,-0.100000)"
fill="#000000" stroke="none">
<path d="M1471 2900 c-24 -4 -38 -13 -50 -35 -9 -16 -26 -46 -38 -65 -11 -19
-30 -51 -41 -70 -10 -19 -43 -75 -72 -125 -29 -49 -61 -106 -72 -125 -10 -19
-30 -53 -43 -75 -14 -22 -30 -49 -35 -60 -6 -11 -14 -27 -20 -35 -18 -27 -140
-241 -140 -246 0 -3 -5 -10 -10 -17 -17 -19 -170 -288 -170 -298 0 -5 -4 -9
-9 -9 -5 0 -11 -8 -15 -17 -3 -10 -10 -25 -16 -33 -5 -8 -25 -42 -43 -75 -19
-33 -64 -111 -100 -174 -37 -62 -67 -115 -67 -118 0 -2 -11 -20 -24 -41 -13
-20 -35 -56 -48 -78 -13 -23 -76 -133 -141 -245 -141 -243 -127 -219 -172
-297 l-37 -62 27 -45 c14 -25 28 -45 32 -45 3 0 192 125 420 277 l415 278 68
115 c37 63 78 135 91 160 13 25 26 47 29 50 5 5 79 131 122 209 11 20 35 61
54 92 19 31 34 62 34 68 0 6 3 11 8 11 4 0 18 21 32 48 13 26 28 50 32 53 10
6 14 43 23 184 3 55 8 127 10 160 7 115 19 310 30 490 3 61 8 129 10 151 3 37
1 42 -18 46 -12 2 -37 1 -56 -2z"/>
<path d="M1659 2899 c-6 -3 -8 -32 -5 -70 5 -60 12 -182 21 -359 3 -41 7 -111
9 -155 5 -73 9 -148 21 -350 l4 -70 232 -405 c127 -223 238 -413 247 -423 14
-16 141 -102 647 -441 83 -55 152 -103 155 -107 3 -3 14 -9 25 -12 16 -5 25 3
46 41 l26 47 -73 130 c-41 72 -79 137 -84 145 -5 8 -19 33 -31 55 -12 22 -27
43 -33 47 -6 4 -8 8 -4 8 7 0 -52 104 -72 127 -6 7 -10 15 -10 18 1 3 -23 47
-53 98 -30 50 -98 169 -151 262 -53 94 -101 177 -106 185 -5 8 -60 103 -121
210 -61 107 -115 199 -120 205 -5 5 -9 17 -9 26 0 10 -3 19 -7 21 -8 3 -73
105 -73 113 0 2 -29 54 -65 115 -36 61 -65 115 -65 120 0 4 -4 10 -8 12 -5 2
-26 35 -47 73 -61 114 -75 138 -95 170 -11 17 -33 55 -49 86 -16 30 -36 61
-44 68 -16 13 -92 21 -108 10z"/>
<path d="M673 646 c-243 -122 -445 -225 -448 -228 -8 -8 35 -89 51 -95 7 -2
604 -6 1326 -7 1233 -2 1313 -1 1330 16 9 9 24 30 32 46 l15 28 -257 131
c-141 72 -347 177 -456 232 l-199 101 -476 -1 -476 -1 -442 -222z"/>
</g>
</svg>
